<?xml version="1.0" encoding="utf-8"?>
<!-- Generator: Adobe Illustrator 25.4.0, SVG Export Plug-In . SVG Version: 6.00 Build 0)  -->
<svg version="1.1" id="Layer_1" xmlns="http://www.w3.org/2000/svg" xmlns:xlink="http://www.w3.org/1999/xlink" x="0px" y="0px"
	 viewBox="0 0 465 139" style="enable-background:new 0 0 465 139;" xml:space="preserve">
<style type="text/css">
	.st0{fill:#FFFFFF;}
	.st1{font-family:'Avenir-Medium';}
	.st2{font-size:39.4214px;}
	.st3{fill:#B54E52;}
</style>
<text transform="matrix(1 0 0 1 37.7212 79.2411)" class="st0 st1 st2">NOBRE IMÓVEIS</text>
<polygon class="st0" points="22.07,94.44 22.07,116.46 378.47,116.46 389.23,74.54 405.9,116.46 428.49,116.46 447.29,43.88 
	424.73,43.88 413.97,86.38 396.76,43.88 375.78,43.88 365.05,95.14 "/>
<circle class="st0" cx="439.2" cy="26.75" r="10.2"/>
<g>
	<path class="st3" d="M36.03,106.66l1.69,0.54c-0.26,0.94-0.69,1.64-1.29,2.1c-0.6,0.46-1.37,0.68-2.29,0.68
		c-1.14,0-2.09-0.39-2.82-1.17c-0.74-0.78-1.11-1.85-1.11-3.21c0-1.44,0.37-2.55,1.11-3.34s1.72-1.19,2.92-1.19
		c1.06,0,1.91,0.31,2.57,0.94c0.39,0.37,0.69,0.9,0.88,1.59L35.97,104c-0.1-0.45-0.31-0.8-0.64-1.06c-0.32-0.26-0.72-0.39-1.18-0.39
		c-0.64,0-1.16,0.23-1.56,0.69c-0.4,0.46-0.6,1.2-0.6,2.23c0,1.09,0.2,1.87,0.59,2.33c0.39,0.46,0.9,0.69,1.53,0.69
		c0.46,0,0.86-0.15,1.19-0.44C35.65,107.76,35.89,107.29,36.03,106.66z"/>
	<path class="st3" d="M38.82,106.62c0-0.55,0.13-1.08,0.41-1.59s0.65-0.91,1.15-1.18c0.5-0.27,1.05-0.41,1.66-0.41
		c0.95,0,1.72,0.31,2.32,0.92c0.6,0.61,0.91,1.39,0.91,2.33c0,0.95-0.3,1.73-0.92,2.35c-0.61,0.62-1.38,0.93-2.3,0.93
		c-0.57,0-1.12-0.13-1.64-0.39c-0.52-0.26-0.91-0.64-1.19-1.14C38.96,107.95,38.82,107.34,38.82,106.62z M40.52,106.71
		c0,0.62,0.15,1.09,0.44,1.42c0.29,0.33,0.66,0.49,1.09,0.49s0.79-0.16,1.09-0.49c0.29-0.33,0.44-0.81,0.44-1.44
		c0-0.61-0.15-1.08-0.44-1.41c-0.29-0.33-0.65-0.49-1.09-0.49s-0.79,0.16-1.09,0.49C40.66,105.62,40.52,106.09,40.52,106.71z"/>
	<path class="st3" d="M52.25,109.83H50.6v-3.19c0-0.68-0.04-1.11-0.11-1.31c-0.07-0.2-0.18-0.35-0.34-0.46
		c-0.16-0.11-0.35-0.16-0.57-0.16c-0.29,0-0.54,0.08-0.77,0.24c-0.23,0.16-0.38,0.36-0.47,0.62c-0.08,0.26-0.13,0.74-0.13,1.44v2.83
		h-1.65v-6.25h1.54v0.92c0.54-0.71,1.23-1.06,2.06-1.06c0.37,0,0.7,0.06,1,0.2c0.3,0.13,0.53,0.3,0.68,0.5
		c0.16,0.2,0.26,0.44,0.32,0.69c0.06,0.26,0.09,0.63,0.09,1.11V109.83z"/>
	<path class="st3" d="M53.34,108.05L55,107.8c0.07,0.32,0.21,0.57,0.43,0.73c0.22,0.17,0.52,0.25,0.91,0.25
		c0.43,0,0.75-0.08,0.96-0.24c0.15-0.11,0.22-0.26,0.22-0.44c0-0.13-0.04-0.23-0.12-0.31c-0.08-0.08-0.27-0.15-0.55-0.22
		c-1.33-0.29-2.18-0.56-2.53-0.81c-0.49-0.34-0.74-0.81-0.74-1.41c0-0.54,0.21-1,0.64-1.36c0.43-0.37,1.09-0.55,1.99-0.55
		c0.86,0,1.49,0.14,1.91,0.42c0.42,0.28,0.7,0.69,0.86,1.23l-1.56,0.29c-0.07-0.24-0.19-0.43-0.38-0.56
		c-0.19-0.13-0.45-0.19-0.8-0.19c-0.44,0-0.75,0.06-0.94,0.18c-0.13,0.09-0.19,0.2-0.19,0.33c0,0.12,0.05,0.22,0.16,0.3
		c0.15,0.11,0.66,0.26,1.54,0.47c0.88,0.2,1.5,0.44,1.85,0.73c0.35,0.29,0.52,0.7,0.52,1.23c0,0.57-0.24,1.07-0.72,1.48
		c-0.48,0.41-1.19,0.62-2.12,0.62c-0.85,0-1.52-0.17-2.02-0.52C53.82,109.11,53.5,108.64,53.34,108.05z"/>
	<path class="st3" d="M64.74,109.83v-0.94c-0.23,0.33-0.53,0.6-0.9,0.79c-0.37,0.19-0.76,0.29-1.17,0.29c-0.42,0-0.8-0.09-1.13-0.28
		c-0.33-0.18-0.57-0.44-0.72-0.78c-0.15-0.33-0.22-0.8-0.22-1.38v-3.95h1.65v2.87c0,0.88,0.03,1.42,0.09,1.62
		c0.06,0.2,0.17,0.35,0.33,0.47c0.16,0.12,0.36,0.17,0.61,0.17c0.28,0,0.54-0.08,0.76-0.23c0.22-0.15,0.38-0.35,0.46-0.58
		c0.08-0.23,0.12-0.79,0.12-1.69v-2.64h1.65v6.25H64.74z"/>
	<path class="st3" d="M67.99,109.83v-8.63h1.65v8.63H67.99z"/>
	<path class="st3" d="M74.2,103.58v1.32h-1.13v2.52c0,0.51,0.01,0.81,0.03,0.89c0.02,0.08,0.07,0.15,0.15,0.21s0.17,0.08,0.28,0.08
		c0.15,0,0.37-0.05,0.66-0.16l0.14,1.28c-0.38,0.17-0.82,0.25-1.31,0.25c-0.3,0-0.57-0.05-0.81-0.15c-0.24-0.1-0.41-0.23-0.53-0.39
		c-0.11-0.16-0.19-0.37-0.23-0.64c-0.04-0.19-0.05-0.58-0.05-1.17v-2.72h-0.76v-1.32h0.76v-1.24l1.66-0.97v2.21H74.2z"/>
	<path class="st3" d="M74.97,106.62c0-0.55,0.13-1.08,0.41-1.59s0.65-0.91,1.15-1.18s1.05-0.41,1.66-0.41
		c0.95,0,1.72,0.31,2.32,0.92c0.6,0.61,0.91,1.39,0.91,2.33c0,0.95-0.3,1.73-0.92,2.35c-0.61,0.62-1.38,0.93-2.3,0.93
		c-0.57,0-1.12-0.13-1.64-0.39c-0.52-0.26-0.91-0.64-1.19-1.14C75.1,107.95,74.97,107.34,74.97,106.62z M76.66,106.71
		c0,0.62,0.15,1.09,0.44,1.42c0.29,0.33,0.66,0.49,1.09,0.49c0.43,0,0.79-0.16,1.09-0.49c0.29-0.33,0.44-0.81,0.44-1.44
		c0-0.61-0.15-1.08-0.44-1.41c-0.29-0.33-0.65-0.49-1.09-0.49c-0.43,0-0.79,0.16-1.09,0.49C76.81,105.62,76.66,106.09,76.66,106.71z
		"/>
	<path class="st3" d="M84.29,109.83h-1.65v-6.25h1.54v0.89c0.26-0.42,0.5-0.7,0.71-0.83s0.45-0.2,0.71-0.2
		c0.38,0,0.74,0.1,1.09,0.31l-0.51,1.44c-0.28-0.18-0.54-0.27-0.78-0.27c-0.23,0-0.43,0.06-0.59,0.19
		c-0.16,0.13-0.29,0.36-0.38,0.69s-0.14,1.03-0.14,2.1V109.83z"/>
	<path class="st3" d="M87.4,102.74v-1.53h1.65v1.53H87.4z M87.4,109.83v-6.25h1.65v6.25H87.4z"/>
	<path class="st3" d="M91.98,105.49l-1.5-0.27c0.17-0.6,0.46-1.05,0.87-1.34c0.41-0.29,1.02-0.44,1.84-0.44
		c0.74,0,1.29,0.09,1.65,0.26c0.36,0.17,0.62,0.4,0.76,0.66c0.15,0.27,0.22,0.76,0.22,1.48l-0.02,1.93c0,0.55,0.03,0.95,0.08,1.21
		c0.05,0.26,0.15,0.54,0.3,0.84h-1.64c-0.04-0.11-0.1-0.27-0.16-0.49c-0.03-0.1-0.05-0.16-0.06-0.19c-0.28,0.27-0.59,0.48-0.91,0.62
		c-0.32,0.14-0.66,0.21-1.03,0.21c-0.64,0-1.15-0.18-1.52-0.52s-0.56-0.79-0.56-1.32c0-0.35,0.08-0.67,0.25-0.94
		c0.17-0.28,0.41-0.49,0.71-0.64c0.3-0.15,0.74-0.28,1.31-0.39c0.77-0.15,1.31-0.28,1.61-0.41v-0.16c0-0.32-0.08-0.54-0.24-0.68
		c-0.16-0.14-0.45-0.2-0.89-0.2c-0.29,0-0.52,0.06-0.69,0.17C92.22,105,92.08,105.2,91.98,105.49z M94.19,106.83
		c-0.21,0.07-0.55,0.16-1.01,0.25c-0.46,0.1-0.76,0.19-0.9,0.29c-0.22,0.15-0.32,0.35-0.32,0.58c0,0.23,0.09,0.43,0.26,0.6
		c0.17,0.17,0.39,0.25,0.66,0.25c0.3,0,0.58-0.1,0.85-0.3c0.2-0.15,0.33-0.33,0.4-0.55c0.04-0.14,0.06-0.41,0.06-0.81V106.83z"/>
	<path class="st3" d="M104.41,107.85l1.65,0.28c-0.21,0.6-0.55,1.06-1,1.38c-0.46,0.32-1.03,0.47-1.71,0.47
		c-1.09,0-1.89-0.36-2.41-1.07c-0.41-0.57-0.62-1.29-0.62-2.15c0-1.04,0.27-1.85,0.81-2.43c0.54-0.59,1.23-0.88,2.05-0.88
		c0.93,0,1.66,0.31,2.2,0.92c0.54,0.61,0.79,1.55,0.77,2.82h-4.14c0.01,0.49,0.15,0.87,0.4,1.14c0.25,0.27,0.57,0.41,0.95,0.41
		c0.26,0,0.48-0.07,0.65-0.21S104.32,108.16,104.41,107.85z M104.51,106.17c-0.01-0.48-0.13-0.84-0.37-1.09
		c-0.23-0.25-0.52-0.37-0.86-0.37c-0.36,0-0.66,0.13-0.89,0.39c-0.24,0.26-0.35,0.62-0.35,1.07H104.51z"/>
	<path class="st3" d="M118.19,109.83h-1.89l-0.75-1.96h-3.45l-0.71,1.96h-1.85l3.36-8.63h1.84L118.19,109.83z M114.98,106.42
		l-1.19-3.2l-1.17,3.2H114.98z"/>
	<path class="st3" d="M124.83,109.83h-1.54v-0.92c-0.25,0.36-0.56,0.62-0.9,0.8c-0.35,0.17-0.7,0.26-1.05,0.26
		c-0.72,0-1.33-0.29-1.84-0.87c-0.51-0.58-0.77-1.39-0.77-2.42c0-1.06,0.25-1.86,0.75-2.41c0.5-0.55,1.13-0.83,1.89-0.83
		c0.7,0,1.3,0.29,1.81,0.87v-3.11h1.65V109.83z M120.42,106.57c0,0.67,0.09,1.15,0.28,1.45c0.27,0.43,0.64,0.65,1.12,0.65
		c0.38,0,0.7-0.16,0.97-0.49s0.4-0.81,0.4-1.45c0-0.72-0.13-1.23-0.39-1.55c-0.26-0.32-0.59-0.47-0.99-0.47
		c-0.39,0-0.72,0.16-0.99,0.47C120.55,105.49,120.42,105.95,120.42,106.57z"/>
	<path class="st3" d="M126.34,103.58h1.52v0.85c0.54-0.66,1.19-0.99,1.95-0.99c0.4,0,0.75,0.08,1.04,0.25
		c0.29,0.16,0.54,0.41,0.72,0.75c0.27-0.33,0.57-0.58,0.89-0.75c0.32-0.16,0.66-0.25,1.02-0.25c0.46,0,0.85,0.09,1.16,0.28
		c0.32,0.19,0.55,0.46,0.71,0.82c0.11,0.27,0.17,0.7,0.17,1.29v3.99h-1.65v-3.57c0-0.62-0.06-1.02-0.17-1.2
		c-0.15-0.24-0.39-0.35-0.71-0.35c-0.23,0-0.45,0.07-0.65,0.21c-0.2,0.14-0.35,0.35-0.44,0.62c-0.09,0.27-0.13,0.7-0.13,1.29v3
		h-1.65v-3.42c0-0.61-0.03-1-0.09-1.18c-0.06-0.18-0.15-0.31-0.27-0.39c-0.12-0.09-0.29-0.13-0.5-0.13c-0.25,0-0.48,0.07-0.69,0.21
		c-0.2,0.14-0.35,0.33-0.44,0.59c-0.09,0.26-0.13,0.69-0.13,1.29v3.04h-1.65V103.58z"/>
	<path class="st3" d="M137.17,102.74v-1.53h1.65v1.53H137.17z M137.17,109.83v-6.25h1.65v6.25H137.17z"/>
	<path class="st3" d="M146.21,109.83h-1.65v-3.19c0-0.68-0.04-1.11-0.11-1.31c-0.07-0.2-0.18-0.35-0.34-0.46
		c-0.16-0.11-0.35-0.16-0.57-0.16c-0.29,0-0.54,0.08-0.77,0.24c-0.23,0.16-0.38,0.36-0.47,0.62c-0.08,0.26-0.13,0.74-0.13,1.44v2.83
		h-1.65v-6.25h1.54v0.92c0.54-0.71,1.23-1.06,2.06-1.06c0.37,0,0.7,0.06,1,0.2c0.3,0.13,0.53,0.3,0.68,0.5
		c0.16,0.2,0.26,0.44,0.32,0.69c0.06,0.26,0.09,0.63,0.09,1.11V109.83z"/>
	<path class="st3" d="M147.88,102.74v-1.53h1.65v1.53H147.88z M147.88,109.83v-6.25h1.65v6.25H147.88z"/>
	<path class="st3" d="M150.65,108.05l1.66-0.25c0.07,0.32,0.21,0.57,0.43,0.73c0.22,0.17,0.52,0.25,0.91,0.25
		c0.43,0,0.75-0.08,0.96-0.24c0.15-0.11,0.22-0.26,0.22-0.44c0-0.13-0.04-0.23-0.12-0.31c-0.08-0.08-0.27-0.15-0.55-0.22
		c-1.33-0.29-2.18-0.56-2.53-0.81c-0.49-0.34-0.74-0.81-0.74-1.41c0-0.54,0.21-1,0.64-1.36c0.43-0.37,1.09-0.55,1.99-0.55
		c0.86,0,1.49,0.14,1.91,0.42c0.42,0.28,0.7,0.69,0.86,1.23l-1.56,0.29c-0.07-0.24-0.19-0.43-0.38-0.56
		c-0.19-0.13-0.45-0.19-0.8-0.19c-0.44,0-0.75,0.06-0.94,0.18c-0.13,0.09-0.19,0.2-0.19,0.33c0,0.12,0.05,0.22,0.16,0.3
		c0.15,0.11,0.66,0.26,1.54,0.47c0.88,0.2,1.5,0.44,1.85,0.73c0.35,0.29,0.52,0.7,0.52,1.23c0,0.57-0.24,1.07-0.72,1.48
		c-0.48,0.41-1.19,0.62-2.12,0.62c-0.85,0-1.52-0.17-2.02-0.52C151.13,109.11,150.8,108.64,150.65,108.05z"/>
	<path class="st3" d="M160.8,103.58v1.32h-1.13v2.52c0,0.51,0.01,0.81,0.03,0.89c0.02,0.08,0.07,0.15,0.15,0.21
		c0.08,0.06,0.17,0.08,0.28,0.08c0.15,0,0.37-0.05,0.66-0.16l0.14,1.28c-0.38,0.17-0.82,0.25-1.31,0.25c-0.3,0-0.57-0.05-0.81-0.15
		c-0.24-0.1-0.41-0.23-0.53-0.39c-0.11-0.16-0.19-0.37-0.23-0.64c-0.04-0.19-0.05-0.58-0.05-1.17v-2.72h-0.76v-1.32h0.76v-1.24
		l1.66-0.97v2.21H160.8z"/>
	<path class="st3" d="M163.53,109.83h-1.65v-6.25h1.54v0.89c0.26-0.42,0.5-0.7,0.71-0.83s0.45-0.2,0.71-0.2
		c0.38,0,0.74,0.1,1.09,0.31l-0.51,1.44c-0.28-0.18-0.54-0.27-0.78-0.27c-0.23,0-0.43,0.06-0.59,0.19
		c-0.16,0.13-0.29,0.36-0.38,0.69c-0.09,0.33-0.14,1.03-0.14,2.1V109.83z"/>
	<path class="st3" d="M167.87,105.49l-1.5-0.27c0.17-0.6,0.46-1.05,0.87-1.34c0.41-0.29,1.02-0.44,1.84-0.44
		c0.74,0,1.29,0.09,1.65,0.26c0.36,0.17,0.62,0.4,0.76,0.66c0.15,0.27,0.22,0.76,0.22,1.48l-0.02,1.93c0,0.55,0.03,0.95,0.08,1.21
		c0.05,0.26,0.15,0.54,0.3,0.84h-1.64c-0.04-0.11-0.1-0.27-0.16-0.49c-0.03-0.1-0.05-0.16-0.06-0.19c-0.28,0.27-0.59,0.48-0.91,0.62
		c-0.32,0.14-0.66,0.21-1.03,0.21c-0.64,0-1.15-0.18-1.52-0.52s-0.56-0.79-0.56-1.32c0-0.35,0.08-0.67,0.25-0.94
		s0.41-0.49,0.71-0.64c0.3-0.15,0.74-0.28,1.31-0.39c0.77-0.15,1.31-0.28,1.61-0.41v-0.16c0-0.32-0.08-0.54-0.24-0.68
		c-0.16-0.14-0.45-0.2-0.89-0.2c-0.29,0-0.52,0.06-0.69,0.17C168.11,105,167.97,105.2,167.87,105.49z M170.08,106.83
		c-0.21,0.07-0.55,0.16-1.01,0.25c-0.46,0.1-0.76,0.19-0.9,0.29c-0.22,0.15-0.32,0.35-0.32,0.58c0,0.23,0.09,0.43,0.26,0.6
		c0.17,0.17,0.39,0.25,0.66,0.25c0.3,0,0.58-0.1,0.85-0.3c0.2-0.15,0.33-0.33,0.4-0.55c0.04-0.14,0.06-0.41,0.06-0.81V106.83z"/>
	<path class="st3" d="M178.78,105.43l-1.63,0.29c-0.06-0.33-0.18-0.57-0.37-0.74c-0.19-0.16-0.45-0.25-0.76-0.25
		c-0.41,0-0.74,0.14-0.99,0.43c-0.25,0.28-0.37,0.76-0.37,1.43c0,0.74,0.12,1.26,0.37,1.57c0.25,0.31,0.58,0.46,1,0.46
		c0.31,0,0.57-0.09,0.77-0.27c0.2-0.18,0.34-0.49,0.42-0.92l1.62,0.28c-0.17,0.75-0.49,1.31-0.97,1.69
		c-0.48,0.38-1.12,0.57-1.92,0.57c-0.91,0-1.64-0.29-2.19-0.87c-0.54-0.58-0.81-1.37-0.81-2.39c0-1.03,0.27-1.83,0.82-2.41
		c0.54-0.57,1.28-0.86,2.21-0.86c0.76,0,1.37,0.16,1.82,0.49C178.27,104.26,178.59,104.76,178.78,105.43z M174.33,112.21v-0.69
		c0.4,0.04,0.78,0.06,1.11,0.06c0.35,0,0.61-0.06,0.78-0.19c0.13-0.09,0.19-0.22,0.19-0.36c0-0.13-0.06-0.25-0.18-0.35
		c-0.12-0.1-0.31-0.15-0.56-0.15c-0.25,0-0.51,0.04-0.77,0.12l0.15-0.58c0.31-0.11,0.64-0.16,0.99-0.16c0.49,0,0.86,0.11,1.12,0.32
		c0.25,0.22,0.38,0.48,0.38,0.79c0,0.35-0.14,0.63-0.42,0.84c-0.38,0.29-0.92,0.44-1.64,0.44
		C174.97,112.3,174.59,112.27,174.33,112.21z"/>
	<path class="st3" d="M181.27,105.49l-1.5-0.27c0.17-0.6,0.46-1.05,0.87-1.34c0.41-0.29,1.02-0.44,1.84-0.44
		c0.74,0,1.29,0.09,1.65,0.26c0.36,0.17,0.62,0.4,0.76,0.66c0.15,0.27,0.22,0.76,0.22,1.48l-0.02,1.93c0,0.55,0.03,0.95,0.08,1.21
		c0.05,0.26,0.15,0.54,0.3,0.84h-1.64c-0.04-0.11-0.1-0.27-0.16-0.49c-0.03-0.1-0.05-0.16-0.06-0.19c-0.28,0.27-0.59,0.48-0.91,0.62
		c-0.32,0.14-0.66,0.21-1.03,0.21c-0.64,0-1.15-0.18-1.52-0.52c-0.37-0.35-0.56-0.79-0.56-1.32c0-0.35,0.08-0.67,0.25-0.94
		s0.41-0.49,0.71-0.64c0.3-0.15,0.74-0.28,1.31-0.39c0.77-0.15,1.31-0.28,1.61-0.41v-0.16c0-0.32-0.08-0.54-0.24-0.68
		c-0.16-0.14-0.45-0.2-0.89-0.2c-0.29,0-0.52,0.06-0.69,0.17C181.51,105,181.38,105.2,181.27,105.49z M181.26,102.74h-0.75
		c0-0.09-0.01-0.16-0.01-0.21c0-0.41,0.1-0.73,0.3-0.95c0.2-0.22,0.46-0.33,0.77-0.33c0.14,0,0.26,0.01,0.38,0.04
		c0.12,0.03,0.33,0.11,0.64,0.25c0.31,0.14,0.56,0.21,0.73,0.21c0.13,0,0.23-0.04,0.32-0.12c0.08-0.08,0.14-0.21,0.16-0.39h0.76
		c0,0.53-0.1,0.91-0.3,1.14c-0.19,0.23-0.44,0.34-0.75,0.34c-0.13,0-0.26-0.01-0.39-0.04c-0.09-0.02-0.32-0.1-0.68-0.24
		c-0.36-0.14-0.62-0.2-0.79-0.2c-0.13,0-0.22,0.04-0.29,0.11C181.3,102.42,181.26,102.56,181.26,102.74z M183.49,106.83
		c-0.21,0.07-0.55,0.16-1.01,0.25c-0.46,0.1-0.76,0.19-0.9,0.29c-0.22,0.15-0.32,0.35-0.32,0.58c0,0.23,0.09,0.43,0.26,0.6
		c0.17,0.17,0.39,0.25,0.66,0.25c0.3,0,0.58-0.1,0.85-0.3c0.2-0.15,0.33-0.33,0.4-0.55c0.04-0.14,0.06-0.41,0.06-0.81V106.83z"/>
	<path class="st3" d="M186.36,106.62c0-0.55,0.13-1.08,0.41-1.59c0.27-0.51,0.65-0.91,1.15-1.18s1.05-0.41,1.66-0.41
		c0.95,0,1.72,0.31,2.32,0.92c0.6,0.61,0.91,1.39,0.91,2.33c0,0.95-0.3,1.73-0.92,2.35c-0.61,0.62-1.38,0.93-2.3,0.93
		c-0.57,0-1.12-0.13-1.64-0.39c-0.52-0.26-0.91-0.64-1.19-1.14C186.49,107.95,186.36,107.34,186.36,106.62z M188.05,106.71
		c0,0.62,0.15,1.09,0.44,1.42c0.29,0.33,0.66,0.49,1.09,0.49s0.79-0.16,1.09-0.49c0.29-0.33,0.44-0.81,0.44-1.44
		c0-0.61-0.15-1.08-0.44-1.41c-0.29-0.33-0.65-0.49-1.09-0.49s-0.79,0.16-1.09,0.49C188.2,105.62,188.05,106.09,188.05,106.71z"/>
	<path class="st3" d="M279.98,106.66l1.69,0.54c-0.26,0.94-0.69,1.64-1.29,2.1c-0.6,0.46-1.37,0.68-2.29,0.68
		c-1.14,0-2.09-0.39-2.82-1.17c-0.74-0.78-1.11-1.85-1.11-3.21c0-1.44,0.37-2.55,1.11-3.34c0.74-0.79,1.72-1.19,2.92-1.19
		c1.06,0,1.91,0.31,2.57,0.94c0.39,0.37,0.69,0.9,0.88,1.59l-1.72,0.41c-0.1-0.45-0.31-0.8-0.64-1.06
		c-0.32-0.26-0.72-0.39-1.18-0.39c-0.64,0-1.16,0.23-1.56,0.69c-0.4,0.46-0.6,1.2-0.6,2.23c0,1.09,0.2,1.87,0.59,2.33
		c0.39,0.46,0.9,0.69,1.53,0.69c0.46,0,0.86-0.15,1.19-0.44C279.6,107.76,279.83,107.29,279.98,106.66z"/>
	<path class="st3" d="M283.17,109.83v-8.63h3.66c0.92,0,1.59,0.08,2.01,0.23c0.42,0.16,0.75,0.43,1,0.83
		c0.25,0.4,0.38,0.85,0.38,1.36c0,0.65-0.19,1.18-0.57,1.6c-0.38,0.42-0.95,0.69-1.71,0.8c0.38,0.22,0.69,0.46,0.93,0.72
		c0.25,0.26,0.58,0.73,0.99,1.4l1.05,1.68h-2.08l-1.26-1.88c-0.45-0.67-0.75-1.09-0.92-1.27c-0.16-0.17-0.34-0.29-0.52-0.36
		c-0.18-0.06-0.48-0.1-0.88-0.1h-0.35v3.6H283.17z M284.91,104.86h1.29c0.84,0,1.36-0.04,1.57-0.11c0.21-0.07,0.37-0.19,0.49-0.37
		c0.12-0.17,0.18-0.39,0.18-0.65c0-0.29-0.08-0.52-0.23-0.7c-0.16-0.18-0.37-0.29-0.66-0.34c-0.14-0.02-0.56-0.03-1.27-0.03h-1.36
		V104.86z"/>
	<path class="st3" d="M291.86,109.83v-8.63h6.4v1.46h-4.65v1.91h4.33v1.45h-4.33v2.35h4.82v1.45H291.86z"/>
	<path class="st3" d="M305.42,106.66l1.69,0.54c-0.26,0.94-0.69,1.64-1.29,2.1c-0.6,0.46-1.37,0.68-2.29,0.68
		c-1.14,0-2.09-0.39-2.82-1.17c-0.74-0.78-1.11-1.85-1.11-3.21c0-1.44,0.37-2.55,1.11-3.34s1.72-1.19,2.92-1.19
		c1.06,0,1.91,0.31,2.57,0.94c0.39,0.37,0.69,0.9,0.88,1.59l-1.72,0.41c-0.1-0.45-0.31-0.8-0.64-1.06
		c-0.32-0.26-0.72-0.39-1.18-0.39c-0.64,0-1.16,0.23-1.56,0.69c-0.4,0.46-0.6,1.2-0.6,2.23c0,1.09,0.2,1.87,0.59,2.33
		s0.9,0.69,1.53,0.69c0.46,0,0.86-0.15,1.19-0.44C305.04,107.76,305.28,107.29,305.42,106.66z"/>
	<path class="st3" d="M308.55,109.83v-8.63h1.74v8.63H308.55z"/>
	<path class="st3" d="M312.26,105.24v-1.65h1.65v1.65H312.26z M312.26,109.83v-1.65h1.65v1.65H312.26z"/>
	<path class="st3" d="M322.42,101.21h1.74v5.46c0,0.71-0.06,1.26-0.19,1.65c-0.17,0.5-0.48,0.9-0.92,1.21
		c-0.44,0.3-1.03,0.46-1.75,0.46c-0.85,0-1.51-0.24-1.96-0.71c-0.46-0.48-0.69-1.18-0.69-2.1l1.64-0.19
		c0.02,0.49,0.09,0.84,0.22,1.05c0.19,0.31,0.47,0.47,0.86,0.47c0.39,0,0.66-0.11,0.82-0.33c0.16-0.22,0.24-0.68,0.24-1.38V101.21z"
		/>
	<path class="st3" d="M331.23,108.3v1.54h-5.79c0.06-0.58,0.25-1.13,0.56-1.65c0.31-0.52,0.93-1.21,1.86-2.07
		c0.74-0.69,1.2-1.16,1.37-1.41c0.23-0.34,0.34-0.68,0.34-1.01c0-0.37-0.1-0.65-0.3-0.85c-0.2-0.2-0.47-0.3-0.82-0.3
		c-0.35,0-0.62,0.1-0.82,0.31c-0.2,0.21-0.32,0.55-0.35,1.04l-1.65-0.16c0.1-0.91,0.41-1.56,0.92-1.96s1.16-0.59,1.94-0.59
		c0.85,0,1.52,0.23,2.01,0.69c0.49,0.46,0.73,1.03,0.73,1.71c0,0.39-0.07,0.76-0.21,1.11c-0.14,0.35-0.36,0.72-0.66,1.1
		c-0.2,0.25-0.56,0.62-1.08,1.1c-0.52,0.48-0.85,0.8-0.99,0.95c-0.14,0.16-0.25,0.31-0.34,0.46H331.23z"/>
	<path class="st3" d="M335.15,101.17c0.83,0,1.49,0.3,1.96,0.9c0.56,0.71,0.84,1.88,0.84,3.51c0,1.63-0.28,2.8-0.85,3.52
		c-0.47,0.59-1.12,0.88-1.95,0.88c-0.84,0-1.52-0.32-2.03-0.97c-0.51-0.64-0.77-1.79-0.77-3.45c0-1.62,0.28-2.79,0.85-3.51
		C333.66,101.47,334.31,101.17,335.15,101.17z M335.15,102.54c-0.2,0-0.38,0.06-0.54,0.19c-0.16,0.13-0.28,0.36-0.36,0.68
		c-0.11,0.43-0.17,1.15-0.17,2.16c0,1.01,0.05,1.71,0.15,2.09c0.1,0.38,0.23,0.63,0.39,0.76s0.33,0.19,0.53,0.19
		c0.2,0,0.38-0.06,0.54-0.19c0.16-0.13,0.28-0.36,0.36-0.68c0.11-0.42,0.17-1.14,0.17-2.15c0-1.01-0.05-1.71-0.15-2.09
		c-0.1-0.38-0.23-0.63-0.38-0.76C335.52,102.61,335.35,102.54,335.15,102.54z"/>
	<path class="st3" d="M339.4,109.83v-1.65h1.65v1.65H339.4z"/>
	<path class="st3" d="M343.82,105.18c-0.43-0.18-0.74-0.43-0.93-0.74s-0.29-0.66-0.29-1.04c0-0.64,0.22-1.18,0.67-1.59
		c0.45-0.42,1.09-0.63,1.92-0.63c0.82,0,1.46,0.21,1.91,0.63c0.45,0.42,0.68,0.95,0.68,1.59c0,0.4-0.1,0.76-0.31,1.07
		c-0.21,0.31-0.5,0.55-0.88,0.71c0.48,0.19,0.84,0.47,1.09,0.84c0.25,0.37,0.37,0.79,0.37,1.28c0,0.8-0.25,1.44-0.76,1.94
		c-0.51,0.5-1.18,0.75-2.03,0.75c-0.78,0-1.44-0.2-1.96-0.62c-0.61-0.49-0.92-1.15-0.92-2c0-0.47,0.12-0.9,0.35-1.28
		C342.95,105.69,343.32,105.39,343.82,105.18z M344,107.21c0,0.45,0.12,0.81,0.35,1.07c0.23,0.25,0.52,0.38,0.87,0.38
		c0.34,0,0.62-0.12,0.85-0.37c0.22-0.24,0.34-0.6,0.34-1.06c0-0.4-0.11-0.73-0.34-0.97c-0.23-0.25-0.52-0.37-0.87-0.37
		c-0.4,0-0.71,0.14-0.9,0.42C344.1,106.58,344,106.88,344,107.21z M344.16,103.51c0,0.33,0.09,0.59,0.28,0.77
		c0.19,0.18,0.43,0.28,0.74,0.28c0.31,0,0.56-0.09,0.75-0.28c0.19-0.19,0.28-0.44,0.28-0.77c0-0.31-0.09-0.56-0.28-0.74
		c-0.19-0.19-0.43-0.28-0.74-0.28c-0.32,0-0.57,0.09-0.76,0.28C344.25,102.95,344.16,103.2,344.16,103.51z"/>
	<path class="st3" d="M351.9,101.17c0.83,0,1.49,0.3,1.96,0.9c0.56,0.71,0.84,1.88,0.84,3.51c0,1.63-0.28,2.8-0.85,3.52
		c-0.47,0.59-1.12,0.88-1.95,0.88c-0.84,0-1.52-0.32-2.03-0.97c-0.51-0.64-0.77-1.79-0.77-3.45c0-1.62,0.28-2.79,0.85-3.51
		C350.41,101.47,351.06,101.17,351.9,101.17z M351.9,102.54c-0.2,0-0.38,0.06-0.54,0.19c-0.16,0.13-0.28,0.36-0.36,0.68
		c-0.11,0.43-0.17,1.15-0.17,2.16c0,1.01,0.05,1.71,0.15,2.09c0.1,0.38,0.23,0.63,0.39,0.76c0.16,0.13,0.33,0.19,0.53,0.19
		c0.2,0,0.38-0.06,0.54-0.19c0.16-0.13,0.28-0.36,0.36-0.68c0.11-0.42,0.17-1.14,0.17-2.15c0-1.01-0.05-1.71-0.15-2.09
		c-0.1-0.38-0.23-0.63-0.38-0.76C352.27,102.61,352.1,102.54,351.9,102.54z"/>
	<path class="st3" d="M355.74,107.54l1.6-0.19c0.05,0.41,0.19,0.72,0.41,0.94c0.22,0.22,0.49,0.32,0.81,0.32
		c0.34,0,0.63-0.13,0.86-0.39s0.35-0.61,0.35-1.05c0-0.42-0.11-0.74-0.34-0.99c-0.22-0.24-0.5-0.36-0.82-0.36
		c-0.21,0-0.46,0.04-0.76,0.12l0.18-1.35c0.45,0.01,0.79-0.08,1.02-0.29c0.24-0.21,0.35-0.48,0.35-0.82c0-0.29-0.09-0.52-0.26-0.69
		s-0.4-0.26-0.69-0.26c-0.28,0-0.52,0.1-0.72,0.29c-0.2,0.2-0.32,0.48-0.37,0.86l-1.52-0.26c0.11-0.52,0.27-0.94,0.48-1.25
		c0.21-0.31,0.51-0.56,0.9-0.73c0.38-0.18,0.81-0.27,1.28-0.27c0.81,0,1.46,0.26,1.95,0.78c0.4,0.42,0.61,0.9,0.61,1.44
		c0,0.76-0.41,1.36-1.24,1.81c0.49,0.11,0.89,0.34,1.19,0.71c0.3,0.37,0.44,0.81,0.44,1.34c0,0.76-0.28,1.4-0.83,1.94
		c-0.55,0.53-1.24,0.8-2.07,0.8c-0.78,0-1.43-0.22-1.94-0.67C356.12,108.86,355.82,108.27,355.74,107.54z"/>
</g>
</svg>
